name C:\Users\u0101727\Documents\MyRepositories\upper-imu-dc\Results\main_tracking\Case_53\kinematics.mot
datacolumns 10
datarows 18
range 2.04000000 2.21000000
endheader 
time	clav_prot	clav_elev	scapula_abduction	scapula_elevation	scapula_upward_rot	scapula_winging	plane_elv	shoulder_elv	axial_rot	
          2.04000000	        -23.13234699	         12.90386138	        -10.72484196	          5.29129037	         27.36178622	         -0.55474498	        -11.20172195	          2.50057692	         41.79298814	
          2.05000000	        -23.18059402	         12.80781666	        -10.76940496	          5.22036101	         27.34720007	         -0.56431886	        -11.29055994	          2.52786811	         41.97859600	
          2.06000000	        -23.23427523	         12.70087854	        -10.82120186	          5.14201056	         27.32830884	         -0.57380376	        -11.37038748	          2.56394469	         42.16769577	
          2.07000000	        -23.29218257	         12.58157073	        -10.87889047	          5.05571571	         27.30298341	         -0.58248158	        -11.44121879	          2.61075243	         42.35778739	
          2.08000000	        -23.35274423	         12.44818707	        -10.94065543	          4.96089560	         27.26870837	         -0.58947302	        -11.50322841	          2.67042576	         42.54594829	
          2.09000000	        -23.41402479	         12.29879489	        -11.00421184	          4.85691287	         27.22258983	         -0.59372969	        -11.55695799	          2.74525076	         42.72909197	
          2.10000000	        -23.47374643	         12.13126252	        -11.06684373	          4.74308600	         27.16138632	         -0.59403311	        -11.60350387	          2.83761651	         42.90423494	
          2.11000000	        -23.52933276	         11.94331576	        -11.12547973	          4.61871593	         27.08156484	         -0.58900222	        -11.64465346	          2.94995808	         43.06872597	
          2.12000000	        -23.57797482	         11.73262573	        -11.17680547	          4.48312877	         26.97938191	         -0.57711144	        -11.68294975	          3.08469369	         43.22040677	
          2.13000000	        -23.61671780	         11.49692762	        -11.21740888	          4.33573471	         26.85098787	         -0.55672058	        -11.72167853	          3.24415796	         43.35769380	
          2.14000000	        -23.64256448	         11.23416604	        -11.24394990	          4.17610093	         26.69255106	         -0.52611795	        -11.76478488	          3.43053255	         43.47958594	
          2.15000000	        -23.65258995	         10.94265900	        -11.25334152	          4.00403439	         26.50039671	         -0.48357674	        -11.81673189	          3.64577584	         43.58560857	
          2.16000000	        -23.64406005	         10.62127049	        -11.24292695	          3.81966876	         26.27115392	         -0.42742381	        -11.88231599	          3.89155392	         43.67570470	
          2.17000000	        -23.61454655	         10.26958049	        -11.21063885	          3.62355011	         26.00190322	         -0.35611870	        -11.96645269	          4.16917494	         43.75008583	
          2.18000000	        -23.56203393	          9.88804417	        -11.15513217	          3.41671674	         25.69031752	         -0.26833980	        -12.07394981	          4.47952731	         43.80906240	
          2.19000000	        -23.48501460	          9.47813273	        -11.07588740	          3.20076971	         25.33478997	         -0.16307390	        -12.20928827	          4.82302141	         43.85288297	
          2.20000000	        -23.38257377	          9.04245126	        -10.97329146	          2.97793220	         24.93454149	         -0.03970424	        -12.37643275	          5.19953320	         43.88161575	
          2.21000000	        -23.25447485	          8.58483134	        -10.84872575	          2.75109760	         24.48969770	          0.10190965	        -12.57869367	          5.60834802	         43.89510385	
